<?xml version="1.0" encoding="UTF-8"?>
<svg version="1.1" xmlns="http://www.w3.org/2000/svg" width="1299" height="1006">
<path d="M0 0 C5.49141884 -0.03347462 9.82080576 0.54227543 14.75049816 3.01714133 C17.49630426 5.84615369 18.01350484 8.50567559 18.37549816 12.32964133 C18.15125368 18.23799575 14.77556931 21.05170086 10.75049816 25.01714133 C9.3459409 26.57180395 7.95055046 28.13478288 6.56299816 29.70464133 C2.47432859 34.24061833 -1.66329101 38.73006624 -5.82445302 43.19951438 C-8.47855268 46.05982795 -11.07853201 48.95684047 -13.63622059 51.90386008 C-17.29757588 56.10659868 -21.10081438 60.16177792 -24.93700184 64.20464133 C-29.75688787 69.30416619 -34.56331649 74.41370406 -39.31200184 79.57964133 C-43.76237964 84.41945571 -48.24795923 89.22488355 -52.74950184 94.01714133 C-57.77227992 99.36495257 -62.77342294 104.73114925 -67.73924794 110.13188742 C-70.48916943 113.11988125 -73.25415074 116.09271855 -76.03465809 119.05229758 C-76.99263295 120.07311423 -76.99263295 120.07311423 -77.96996083 121.11455344 C-79.21374503 122.43869493 -80.45927552 123.76119887 -81.70677724 125.0818386 C-82.27001698 125.68181662 -82.83325673 126.28179465 -83.41356434 126.89995383 C-84.16307362 127.69490256 -84.16307362 127.69490256 -84.9277245 128.50591086 C-86.45950757 130.19104536 -86.45950757 130.19104536 -88.24950184 133.01714133 C-88.90950184 133.01714133 -89.56950184 133.01714133 -90.24950184 133.01714133 C-90.64214223 133.8930593 -90.64214223 133.8930593 -91.04271474 134.78667258 C-92.31804514 137.14382787 -93.70595005 138.77381565 -95.55809559 140.70464133 C-96.2171288 141.39719016 -96.876162 142.08973899 -97.55516591 142.80327414 C-98.25867177 143.53385031 -98.96217763 144.26442649 -99.68700184 145.01714133 C-101.1498431 146.55302683 -102.61208081 148.08948739 -104.07372059 149.62651633 C-104.78963368 150.37739524 -105.50554677 151.12827414 -106.24315419 151.90190696 C-109.74875572 155.59776138 -113.1751866 159.36384977 -116.60887684 163.12651633 C-119.98192044 166.81890133 -123.37551687 170.49202369 -126.77220692 174.16264914 C-129.19245664 176.78019121 -131.60493613 179.40377272 -133.99559559 182.04839133 C-136.72156475 185.06187662 -139.47769427 188.04580858 -142.24950184 191.01714133 C-142.75594227 191.56434836 -143.2623827 192.11155539 -143.78416981 192.67534446 C-159.9964589 210.06026756 -179.72367624 219.12607971 -203.59171941 220.2918806 C-208.19341138 220.43288574 -212.79344859 220.41623093 -217.3967339 220.39568137 C-219.16129536 220.398981 -220.92585475 220.4036009 -222.69040974 220.40940903 C-227.48964273 220.42151044 -232.28869686 220.41530725 -237.08792927 220.40590404 C-242.28295338 220.3990619 -247.47794622 220.40966349 -252.67296376 220.41818808 C-261.66083222 220.43071341 -270.64865258 220.43274158 -279.63652768 220.42783164 C-292.64865009 220.42100198 -305.66070046 220.43357901 -318.67280997 220.45133882 C-339.8109196 220.47994434 -360.94902141 220.49748974 -382.08714833 220.50591086 C-383.35033034 220.50641804 -384.61351236 220.50692522 -385.91497262 220.50744777 C-396.16362632 220.51147952 -406.4122802 220.51497368 -416.66093411 220.518445 C-425.621365 220.52150269 -434.58179577 220.52477497 -443.54222645 220.5283718 C-444.80416082 220.52887441 -446.06609518 220.52937703 -447.36626997 220.52989488 C-468.43033153 220.53864789 -489.49436626 220.55910032 -510.55840977 220.5878539 C-523.53349557 220.60499992 -536.50850536 220.61163396 -549.48360099 220.60454785 C-558.37565533 220.60035937 -567.26766181 220.60674776 -576.15970501 220.62134658 C-581.28374444 220.6293798 -586.40766505 220.63255735 -591.53170361 220.62252425 C-596.23139947 220.6133991 -600.93087538 220.61825204 -605.63055266 220.63373868 C-607.32143338 220.63690261 -609.01233307 220.63511059 -610.70319995 220.6275733 C-628.17814957 220.55528881 -646.07862051 221.93035813 -659.92918934 233.69682883 C-670.3318181 244.09945758 -674.40521731 258.80986536 -677.12840809 272.86479758 C-677.37490605 274.09674353 -677.62140401 275.32868949 -677.8753716 276.59796714 C-681.11769152 292.94912837 -683.92229768 309.38592069 -686.73504796 325.81521033 C-687.19277119 328.48833457 -687.65171564 331.16124701 -688.11086049 333.83412741 C-693.31977661 364.13634977 -693.31977661 364.13634977 -698.2395226 394.48641013 C-698.53315014 396.35208547 -698.83108285 398.21708939 -699.13374867 400.0813198 C-702.16823899 416.64031394 -702.16823899 416.64031394 -698.12450184 432.51714133 C-693.40526973 439.01619813 -686.88765892 440.78783321 -679.24950184 442.01714133 C-675.71411654 442.28317758 -672.19651077 442.29865709 -668.65224232 442.2888851 C-667.62073595 442.29397194 -666.58922958 442.29905878 -665.52646544 442.30429976 C-662.08856538 442.31889957 -658.65080956 442.31949282 -655.21288075 442.32011985 C-652.73994703 442.32778575 -650.26701591 442.33633301 -647.79408803 442.34569358 C-642.47568958 442.36394763 -637.15732838 442.37625506 -631.8389069 442.3832321 C-624.12880805 442.3934424 -616.4187776 442.41553529 -608.70871443 442.44061802 C-596.17040411 442.48117624 -583.6320872 442.51364622 -571.09374013 442.54033469 C-570.34419739 442.54193199 -569.59465465 442.54352929 -568.82239849 442.545175 C-567.69679234 442.54757335 -567.69679234 442.54757335 -566.54844668 442.55002015 C-555.9352835 442.57265725 -545.32212746 442.59729974 -534.7089745 442.62431906 C-533.59058994 442.62716328 -533.59058994 442.62716328 -532.44961176 442.63006496 C-519.96823856 442.66196712 -507.486878 442.69773356 -495.00552084 442.73536055 C-487.32684883 442.75825818 -479.64818524 442.7772617 -471.96949131 442.79102729 C-466.0662747 442.8017823 -460.1630761 442.81721139 -454.25987401 442.83421897 C-451.8554651 442.84032072 -449.45105141 442.84480975 -447.04663624 442.84747695 C-436.26003073 442.86011428 -425.48505977 442.90513706 -414.70931019 443.43033408 C-413.97282014 443.46419134 -413.23633009 443.49804861 -412.47752216 443.53293185 C-394.55283549 444.54176146 -376.09563788 451.10181606 -363.24950184 464.01714133 C-350.23201405 479.13125105 -345.23836767 497.76545754 -346.46434559 517.47026633 C-348.77136571 535.66276782 -358.10427958 547.96497064 -370.24950184 561.01714133 C-371.56326714 562.45357748 -372.87699885 563.89004508 -374.18944325 565.32768821 C-381.01882905 572.80089728 -387.89948194 580.22729962 -394.77000966 587.66264914 C-400.56063442 593.92992984 -406.34304363 600.20439703 -412.10521474 606.49785422 C-415.47751414 610.17941698 -418.86140914 613.85011254 -422.24950184 617.51714133 C-426.19053027 621.78472851 -430.13078895 626.05300806 -434.06200184 630.32964133 C-434.89344716 631.23327414 -435.72489247 632.13690696 -436.58153309 633.06792258 C-438.62075131 635.32210963 -440.62738498 637.5939521 -442.62059559 639.88823508 C-446.15372923 643.93848273 -449.80748135 647.86196127 -453.49950184 651.76714133 C-458.90061036 657.50394583 -464.25980433 663.27360583 -469.57372059 669.09136008 C-472.45568396 672.24258718 -475.35095335 675.38118173 -478.24950184 678.51714133 C-482.54322563 683.16390616 -486.82507258 687.82126395 -491.09618153 692.48882102 C-493.50980016 695.12486095 -495.92975448 697.75474981 -498.35887684 700.37651633 C-498.88288075 700.94241477 -499.40688466 701.50831321 -499.94676747 702.09136008 C-500.93930699 703.16255367 -501.93271221 704.23294619 -502.92723622 705.30229758 C-505.55209351 708.13582553 -508.12256683 711.00746431 -510.65575184 713.92339133 C-514.17588968 717.96317773 -517.81878474 721.87388938 -521.49950184 725.76714133 C-527.80656635 732.46664541 -534.04852397 739.21937761 -540.24950184 746.01714133 C-546.21511156 752.55006014 -552.20709641 759.05519269 -558.24950184 765.51714133 C-562.5784402 770.14796152 -566.89911806 774.78574672 -571.18700184 779.45464133 C-572.00040028 780.34022727 -572.81379872 781.22581321 -573.65184559 782.13823508 C-575.65350501 784.35661552 -577.6232938 786.59297633 -579.58153309 788.84917258 C-583.28230449 793.09056796 -587.12486446 797.18490038 -590.99950184 801.26714133 C-596.58540482 807.17693928 -602.12727878 813.11973522 -607.60887684 819.12651633 C-610.4779052 822.26716867 -613.36200743 825.39348123 -616.24950184 828.51714133 C-620.09197016 832.67549657 -623.92611804 836.84123232 -627.74950184 841.01714133 C-631.55324572 845.17109504 -635.36597002 849.31658337 -639.18700184 853.45464133 C-639.68224354 853.99113303 -640.17748524 854.52762473 -640.68773427 855.08037375 C-643.26539 857.87182501 -645.84566935 860.66080389 -648.42918934 863.44682883 C-654.60772898 870.09658211 -654.60772898 870.09658211 -660.62450184 876.89214133 C-664.57345711 881.45751888 -668.72210689 885.8357342 -672.84789052 890.24053 C-678.35961326 896.12607737 -683.81107185 902.06383039 -689.24950184 908.01714133 C-699.22219543 918.91618091 -709.22349586 929.78760565 -719.31200184 940.57964133 C-730.1016945 952.10005869 -730.1016945 952.10005869 -740.60887684 963.87651633 C-744.16541447 967.95274827 -747.84537339 971.8996365 -751.56200184 975.82964133 C-758.87442298 983.59728236 -766.17001422 991.37072341 -773.06200184 999.51714133 C-776.12723858 1002.9877574 -778.54797717 1005.66498727 -783.34715809 1006.29057883 C-788.38168246 1006.50910576 -791.99449215 1005.91828431 -796.24950184 1003.01714133 C-801.70130691 997.47668903 -802.52169771 993.7505947 -802.53087964 986.09160708 C-802.37893859 976.42560673 -800.5074331 967.02257291 -798.78856434 957.53667258 C-798.41052156 955.39161283 -798.03373574 953.24633124 -797.65808644 951.10085105 C-796.84279049 946.45948303 -796.01900998 941.81973128 -795.18855824 937.18105124 C-793.84485869 929.67476074 -792.52007571 922.16520373 -791.19798817 914.65508078 C-790.73344508 912.01814558 -790.26883911 909.38122163 -789.80405202 906.74432944 C-789.62857298 905.74876643 -789.62857298 905.74876643 -789.44954892 904.73309104 C-788.59975258 899.91377567 -787.74706525 895.09497668 -786.89307179 890.27640342 C-783.11444079 868.95371516 -779.37689695 847.62405153 -775.65965809 826.29057883 C-775.38044877 824.68835949 -775.10123899 823.08614023 -774.82202878 821.48392104 C-773.70187524 815.05568812 -772.58192415 808.62741995 -771.46230569 802.19909381 C-769.49770645 790.91967827 -767.53042701 779.64073265 -765.56126942 768.36211203 C-765.42363364 767.57377781 -765.28599785 766.78544359 -765.14419129 765.97322046 C-764.45761084 762.04078152 -763.77098737 758.10835009 -763.08434262 754.17592238 C-759.31499556 732.58855076 -755.54813003 711.00075019 -751.78856434 689.41167258 C-750.69355734 683.12445892 -749.59845842 676.83726127 -748.50323643 670.55008506 C-748.20995945 668.86650423 -747.91669815 667.18292066 -747.6234528 665.49933432 C-744.21596337 645.9373552 -740.78920056 626.37891195 -737.33153309 606.82573508 C-737.16686354 605.89447617 -737.00219399 604.96321727 -736.83253445 604.00373839 C-735.51991636 596.58102343 -734.20697995 589.15836471 -732.89331975 581.73583411 C-728.48352754 556.81914029 -724.12904638 531.89527017 -719.94920888 506.93877219 C-719.62749927 505.02087346 -719.3057249 503.10298558 -718.98387684 501.18511008 C-718.76090932 499.85213134 -718.76090932 499.85213134 -718.53343739 498.49222373 C-717.40434529 491.79488109 -716.14620642 485.12862086 -714.810537 478.46953391 C-713.48391083 470.30599138 -712.45960305 460.26945288 -717.24950184 453.01714133 C-723.10297207 446.42459658 -729.66508598 444.7435102 -738.24950184 444.01714133 C-742.61949971 443.86399951 -746.98745836 443.85296409 -751.35985341 443.84355735 C-753.35332931 443.83329233 -755.3468052 443.8230252 -757.34028067 443.81267821 C-759.47018682 443.80249144 -761.60009076 443.79461724 -763.73000874 443.78734587 C-768.1866385 443.77179066 -772.64319946 443.74784114 -777.09978261 443.72244834 C-789.76829695 443.65152027 -802.43685008 443.59157763 -815.10545888 443.54033469 C-822.11247112 443.51191829 -829.11941418 443.47647939 -836.12635364 443.43368094 C-840.54532206 443.40710376 -844.96421244 443.38907975 -849.38324465 443.37764369 C-852.79607415 443.36627266 -856.2087955 443.34217928 -859.62157216 443.32011985 C-860.82821019 443.3195307 -862.03484822 443.31894156 -863.27805104 443.31833457 C-879.04699429 443.1840064 -893.72759256 440.29910815 -905.50731434 429.02495383 C-916.03291325 416.89455509 -919.04923001 403.75379233 -918.24950184 388.01714133 C-916.77792276 373.79158505 -914.19279234 359.72288833 -911.67528309 345.65386008 C-911.5110447 344.73379864 -911.3468063 343.81373721 -911.17759099 342.86579512 C-909.62799162 334.18648671 -908.07395048 325.50801102 -906.49339833 316.83428 C-905.62133074 312.04542912 -904.76391691 307.25413955 -903.91541638 302.46105956 C-903.59427861 300.66271881 -903.26791126 298.86530229 -902.9357449 297.0689659 C-899.43238658 278.10292008 -897.36944655 259.41779047 -908.43309559 242.36479758 C-917.18429658 231.05410555 -928.60633064 226.02783031 -942.24950184 223.01714133 C-946.18023335 222.53805012 -950.08535223 222.41012802 -954.04247059 222.32573508 C-955.81028134 222.27527282 -955.81028134 222.27527282 -957.61380543 222.22379111 C-979.32492925 221.69956875 -1001.06180798 221.99500854 -1022.77660145 222.1130886 C-1027.84041552 222.14007367 -1032.90418643 222.15697236 -1037.9680592 222.16795729 C-1039.86757249 222.17408638 -1041.76707813 222.18398637 -1043.66654935 222.19803618 C-1071.95192778 222.40595829 -1094.46196905 217.49492612 -1115.24950184 197.01714133 C-1115.73870106 196.5416384 -1116.22790028 196.06613547 -1116.73192372 195.57622336 C-1121.90519598 190.54550807 -1126.88803367 185.40253721 -1131.57372059 179.91167258 C-1133.94352253 177.23252587 -1136.48971897 174.7507248 -1139.06200184 172.26714133 C-1140.95605907 170.31896818 -1142.73900379 168.32999806 -1144.51903309 166.27886008 C-1148.21629184 162.02263329 -1152.05699557 157.91896624 -1155.93700184 153.82964133 C-1157.34239001 152.3417758 -1158.74733331 150.85348995 -1160.15184559 149.36479758 C-1160.8413329 148.63406028 -1161.5308202 147.90332297 -1162.24120106 147.15044211 C-1165.174055 144.03504244 -1168.09209768 140.90629177 -1170.99950184 137.76714133 C-1171.71432728 136.99914206 -1171.71432728 136.99914206 -1172.44359364 136.21562766 C-1175.18506489 133.24854535 -1177.73931243 130.18051982 -1180.24950184 127.01714133 C-1182.42464031 124.78321534 -1184.647254 122.60494678 -1186.87840809 120.42729758 C-1189.87008019 117.47578215 -1192.75457341 114.48537836 -1195.49559559 111.29839133 C-1199.20251671 107.03759066 -1203.05011531 102.92596089 -1206.93700184 98.82964133 C-1212.26215965 93.19520955 -1217.56014675 87.53897 -1222.80858388 81.8330593 C-1226.62329724 77.68831328 -1230.46465785 73.56909691 -1234.31200184 69.45464133 C-1236.07109236 67.57029646 -1237.8295254 65.68534241 -1239.58739247 63.79985617 C-1240.65586841 62.65384981 -1241.72483795 61.50830335 -1242.79442372 60.36333274 C-1247.63125936 55.17802653 -1252.34647598 49.95631914 -1256.74950184 44.39214133 C-1259.85810781 40.50916936 -1263.12858771 37.22593692 -1266.87450184 33.95464133 C-1273.38953715 28.22543076 -1280.64449059 20.56307784 -1281.62450184 11.57964133 C-1281.18344822 7.38963194 -1280.23864047 5.92324833 -1277.24950184 3.01714133 C-1273.3987203 0.32102511 -1269.12231765 0.73856096 -1264.612224 0.76233231 C-1263.72548838 0.75908171 -1262.83875275 0.75583111 -1261.92514635 0.75248201 C-1258.92669366 0.74396034 -1255.92843613 0.74978157 -1252.92997899 0.7554283 C-1250.76013761 0.75224331 -1248.59029738 0.74818189 -1246.42045911 0.74331902 C-1240.41439443 0.73243032 -1234.40838681 0.73409392 -1228.40231569 0.73766974 C-1222.55597779 0.73919338 -1216.70965758 0.7313179 -1210.86332557 0.72368844 C-1198.75428195 0.70822151 -1186.64525004 0.70223966 -1174.53619733 0.70135497 C-1162.25985346 0.70041949 -1149.98352294 0.69514249 -1137.7071835 0.68452452 C-1136.5453649 0.68352354 -1136.5453649 0.68352354 -1135.36007522 0.68250233 C-1131.41084162 0.67907967 -1127.46160808 0.67558599 -1123.51237456 0.67206723 C-1094.90394753 0.64672267 -1066.29552172 0.63105359 -1037.68708577 0.62048529 C-1009.3441099 0.60998682 -981.00114107 0.59536638 -952.65817036 0.57520484 C-951.33841342 0.57426886 -951.33841342 0.57426886 -949.99199472 0.57331398 C-941.95605029 0.5676127 -933.9201059 0.56186058 -925.88416155 0.55604745 C-905.90568798 0.54159586 -885.92721399 0.52778325 -865.94873967 0.51440428 C-865.03887447 0.51379446 -864.12900928 0.51318464 -863.19157241 0.51255635 C-818.91352154 0.48293566 -774.63546736 0.46067686 -730.357412 0.43901633 C-714.98955308 0.43149441 -699.62169418 0.42393987 -684.25383534 0.41625022 C-683.30078667 0.41577337 -682.34773799 0.41529652 -681.36580905 0.41480522 C-637.08958536 0.39260735 -592.81336537 0.36517676 -548.53714553 0.3363925 C-545.66381484 0.33452462 -542.79048416 0.332659 -539.91715348 0.33079383 C-520.87477875 0.31842925 -501.83240408 0.30597481 -482.79002944 0.29346135 C-443.9755969 0.26795611 -405.16116399 0.24303852 -366.34673085 0.21846579 C-365.00683576 0.217617 -365.00683576 0.217617 -363.63987209 0.21675106 C-283.11673883 0.16574555 -202.59360266 0.12070421 -122.07046438 0.07840943 C-119.76746512 0.07719961 -117.46446585 0.07598886 -115.16146659 0.07477789 C-93.91987668 0.06361057 -72.67828671 0.05256216 -51.43669667 0.04164695 C-50.17407098 0.04099713 -48.91144529 0.04034732 -47.61055821 0.03967781 C-40.50198323 0.03602141 -33.39340824 0.03238925 -26.28483322 0.02879808 C-24.17545562 0.0277304 -22.06607802 0.02665644 -19.95670043 0.0255756 C-17.10052574 0.02411452 -14.24435104 0.02267945 -11.38817634 0.02125202 C-10.57080898 0.02082904 -9.75344162 0.02040606 -8.91130555 0.01997026 C-7.40568106 0.01922897 -5.90005608 0.01910866 -4.39443153 0.01972531 C-2.92960732 0.01796065 -1.46478274 0.01116173 0 0 Z " fill="#FEFEFE" transform="translate(1281.249501844868,-0.017141330055892467)"/>
</svg>
