<?xml version="1.0" encoding="UTF-8"?>
<!-- Generator: visioncortex VTracer 0.6.4 -->
<svg version="1.1" xmlns="http://www.w3.org/2000/svg" width="1299" height="1006">
<path d="M0 0 C5.49 -0.03 9.82 0.54 14.75 3.02 C17.5 5.85 18.01 8.51 18.38 12.33 C18.15 18.24 14.78 21.05 10.75 25.02 C9.35 26.57 7.95 28.13 6.56 29.7 C2.47 34.24 -1.66 38.73 -5.82 43.2 C-8.48 46.06 -11.08 48.96 -13.64 51.9 C-17.3 56.11 -21.1 60.16 -24.94 64.2 C-29.76 69.3 -34.56 74.41 -39.31 79.58 C-43.76 84.42 -48.25 89.22 -52.75 94.02 C-57.77 99.36 -62.77 104.73 -67.74 110.13 C-70.49 113.12 -73.25 116.09 -76.03 119.05 C-76.99 120.07 -76.99 120.07 -77.97 121.11 C-79.21 122.44 -80.46 123.76 -81.71 125.08 C-82.27 125.68 -82.83 126.28 -83.41 126.9 C-84.16 127.69 -84.16 127.69 -84.93 128.51 C-86.46 130.19 -86.46 130.19 -88.25 133.02 C-88.91 133.02 -89.57 133.02 -90.25 133.02 C-90.64 133.89 -90.64 133.89 -91.04 134.79 C-92.32 137.14 -93.71 138.77 -95.56 140.7 C-96.22 141.4 -96.88 142.09 -97.56 142.8 C-98.26 143.53 -98.96 144.26 -99.69 145.02 C-101.15 146.55 -102.61 148.09 -104.07 149.63 C-104.79 150.38 -105.51 151.13 -106.24 151.9 C-109.75 155.6 -113.18 159.36 -116.61 163.13 C-119.98 166.82 -123.38 170.49 -126.77 174.16 C-129.19 176.78 -131.6 179.4 -134 182.05 C-136.72 185.06 -139.48 188.05 -142.25 191.02 C-142.76 191.56 -143.26 192.11 -143.78 192.68 C-160 210.06 -179.72 219.13 -203.59 220.29 C-208.19 220.43 -212.79 220.42 -217.4 220.4 C-219.16 220.4 -220.93 220.4 -222.69 220.41 C-227.49 220.42 -232.29 220.42 -237.09 220.41 C-242.28 220.4 -247.48 220.41 -252.67 220.42 C-261.66 220.43 -270.65 220.43 -279.64 220.43 C-292.65 220.42 -305.66 220.43 -318.67 220.45 C-339.81 220.48 -360.95 220.5 -382.09 220.51 C-383.35 220.51 -384.61 220.51 -385.91 220.51 C-396.16 220.51 -406.41 220.51 -416.66 220.52 C-425.62 220.52 -434.58 220.52 -443.54 220.53 C-444.8 220.53 -446.07 220.53 -447.37 220.53 C-468.43 220.54 -489.49 220.56 -510.56 220.59 C-523.53 220.6 -536.51 220.61 -549.48 220.6 C-558.38 220.6 -567.27 220.61 -576.16 220.62 C-581.28 220.63 -586.41 220.63 -591.53 220.62 C-596.23 220.61 -600.93 220.62 -605.63 220.63 C-607.32 220.64 -609.01 220.64 -610.7 220.63 C-628.18 220.56 -646.08 221.93 -659.93 233.7 C-670.33 244.1 -674.41 258.81 -677.13 272.86 C-677.37 274.1 -677.62 275.33 -677.88 276.6 C-681.12 292.95 -683.92 309.39 -686.74 325.82 C-687.19 328.49 -687.65 331.16 -688.11 333.83 C-693.32 364.14 -693.32 364.14 -698.24 394.49 C-698.53 396.35 -698.83 398.22 -699.13 400.08 C-702.17 416.64 -702.17 416.64 -698.12 432.52 C-693.41 439.02 -686.89 440.79 -679.25 442.02 C-675.71 442.28 -672.2 442.3 -668.65 442.29 C-667.62 442.29 -666.59 442.3 -665.53 442.3 C-662.09 442.32 -658.65 442.32 -655.21 442.32 C-652.74 442.33 -650.27 442.34 -647.79 442.35 C-642.48 442.36 -637.16 442.38 -631.84 442.38 C-624.13 442.39 -616.42 442.42 -608.71 442.44 C-596.17 442.48 -583.63 442.51 -571.09 442.54 C-570.34 442.54 -569.59 442.54 -568.82 442.55 C-567.7 442.55 -567.7 442.55 -566.55 442.55 C-555.94 442.57 -545.32 442.6 -534.71 442.62 C-533.59 442.63 -533.59 442.63 -532.45 442.63 C-519.97 442.66 -507.49 442.7 -495.01 442.74 C-487.33 442.76 -479.65 442.78 -471.97 442.79 C-466.07 442.8 -460.16 442.82 -454.26 442.83 C-451.86 442.84 -449.45 442.84 -447.05 442.85 C-436.26 442.86 -425.49 442.91 -414.71 443.43 C-413.97 443.46 -413.24 443.5 -412.48 443.53 C-394.55 444.54 -376.1 451.1 -363.25 464.02 C-350.23 479.13 -345.24 497.77 -346.46 517.47 C-348.77 535.66 -358.1 547.96 -370.25 561.02 C-371.56 562.45 -372.88 563.89 -374.19 565.33 C-381.02 572.8 -387.9 580.23 -394.77 587.66 C-400.56 593.93 -406.34 600.2 -412.11 606.5 C-415.48 610.18 -418.86 613.85 -422.25 617.52 C-426.19 621.78 -430.13 626.05 -434.06 630.33 C-434.89 631.23 -435.72 632.14 -436.58 633.07 C-438.62 635.32 -440.63 637.59 -442.62 639.89 C-446.15 643.94 -449.81 647.86 -453.5 651.77 C-458.9 657.5 -464.26 663.27 -469.57 669.09 C-472.46 672.24 -475.35 675.38 -478.25 678.52 C-482.54 683.16 -486.83 687.82 -491.1 692.49 C-493.51 695.12 -495.93 697.75 -498.36 700.38 C-498.88 700.94 -499.41 701.51 -499.95 702.09 C-500.94 703.16 -501.93 704.23 -502.93 705.3 C-505.55 708.14 -508.12 711.01 -510.66 713.92 C-514.18 717.96 -517.82 721.87 -521.5 725.77 C-527.81 732.47 -534.05 739.22 -540.25 746.02 C-546.22 752.55 -552.21 759.06 -558.25 765.52 C-562.58 770.15 -566.9 774.79 -571.19 779.45 C-572 780.34 -572.81 781.23 -573.65 782.14 C-575.65 784.36 -577.62 786.59 -579.58 788.85 C-583.28 793.09 -587.12 797.18 -591 801.27 C-596.59 807.18 -602.13 813.12 -607.61 819.13 C-610.48 822.27 -613.36 825.39 -616.25 828.52 C-620.09 832.68 -623.93 836.84 -627.75 841.02 C-631.55 845.17 -635.37 849.32 -639.19 853.45 C-639.68 853.99 -640.18 854.53 -640.69 855.08 C-643.27 857.87 -645.85 860.66 -648.43 863.45 C-654.61 870.1 -654.61 870.1 -660.62 876.89 C-664.57 881.46 -668.72 885.84 -672.85 890.24 C-678.36 896.13 -683.81 902.06 -689.25 908.02 C-699.22 918.92 -709.22 929.79 -719.31 940.58 C-730.1 952.1 -730.1 952.1 -740.61 963.88 C-744.17 967.95 -747.85 971.9 -751.56 975.83 C-758.87 983.6 -766.17 991.37 -773.06 999.52 C-776.13 1002.99 -778.55 1005.66 -783.35 1006.29 C-788.38 1006.51 -791.99 1005.92 -796.25 1003.02 C-801.7 997.48 -802.52 993.75 -802.53 986.09 C-802.38 976.43 -800.51 967.02 -798.79 957.54 C-798.41 955.39 -798.03 953.25 -797.66 951.1 C-796.84 946.46 -796.02 941.82 -795.19 937.18 C-793.84 929.67 -792.52 922.17 -791.2 914.66 C-790.73 912.02 -790.27 909.38 -789.8 906.74 C-789.63 905.75 -789.63 905.75 -789.45 904.73 C-788.6 899.91 -787.75 895.09 -786.89 890.28 C-783.11 868.95 -779.38 847.62 -775.66 826.29 C-775.38 824.69 -775.1 823.09 -774.82 821.48 C-773.7 815.06 -772.58 808.63 -771.46 802.2 C-769.5 790.92 -767.53 779.64 -765.56 768.36 C-765.42 767.57 -765.29 766.79 -765.14 765.97 C-764.46 762.04 -763.77 758.11 -763.08 754.18 C-759.31 732.59 -755.55 711 -751.79 689.41 C-750.69 683.12 -749.6 676.84 -748.5 670.55 C-748.21 668.87 -747.92 667.18 -747.62 665.5 C-744.22 645.94 -740.79 626.38 -737.33 606.83 C-737.17 605.89 -737 604.96 -736.83 604 C-735.52 596.58 -734.21 589.16 -732.89 581.74 C-728.48 556.82 -724.13 531.9 -719.95 506.94 C-719.63 505.02 -719.31 503.1 -718.98 501.19 C-718.76 499.85 -718.76 499.85 -718.53 498.49 C-717.4 491.79 -716.15 485.13 -714.81 478.47 C-713.48 470.31 -712.46 460.27 -717.25 453.02 C-723.1 446.42 -729.67 444.74 -738.25 444.02 C-742.62 443.86 -746.99 443.85 -751.36 443.84 C-753.35 443.83 -755.35 443.82 -757.34 443.81 C-759.47 443.8 -761.6 443.79 -763.73 443.79 C-768.19 443.77 -772.64 443.75 -777.1 443.72 C-789.77 443.65 -802.44 443.59 -815.11 443.54 C-822.11 443.51 -829.12 443.48 -836.13 443.43 C-840.55 443.41 -844.96 443.39 -849.38 443.38 C-852.8 443.37 -856.21 443.34 -859.62 443.32 C-860.83 443.32 -862.03 443.32 -863.28 443.32 C-879.05 443.18 -893.73 440.3 -905.51 429.02 C-916.03 416.89 -919.05 403.75 -918.25 388.02 C-916.78 373.79 -914.19 359.72 -911.68 345.65 C-911.51 344.73 -911.35 343.81 -911.18 342.87 C-909.63 334.19 -908.07 325.51 -906.49 316.83 C-905.62 312.05 -904.76 307.25 -903.92 302.46 C-903.59 300.66 -903.27 298.87 -902.94 297.07 C-899.43 278.1 -897.37 259.42 -908.43 242.36 C-917.18 231.05 -928.61 226.03 -942.25 223.02 C-946.18 222.54 -950.09 222.41 -954.04 222.33 C-955.81 222.28 -955.81 222.28 -957.61 222.22 C-979.32 221.7 -1001.06 222 -1022.78 222.11 C-1027.84 222.14 -1032.9 222.16 -1037.97 222.17 C-1039.87 222.17 -1041.77 222.18 -1043.67 222.2 C-1071.95 222.41 -1094.46 217.49 -1115.25 197.02 C-1115.74 196.54 -1116.23 196.07 -1116.73 195.58 C-1121.91 190.55 -1126.89 185.4 -1131.57 179.91 C-1133.94 177.23 -1136.49 174.75 -1139.06 172.27 C-1140.96 170.32 -1142.74 168.33 -1144.52 166.28 C-1148.22 162.02 -1152.06 157.92 -1155.94 153.83 C-1157.34 152.34 -1158.75 150.85 -1160.15 149.36 C-1160.84 148.63 -1161.53 147.9 -1162.24 147.15 C-1165.17 144.04 -1168.09 140.91 -1171 137.77 C-1171.71 137 -1171.71 137 -1172.44 136.22 C-1175.19 133.25 -1177.74 130.18 -1180.25 127.02 C-1182.42 124.78 -1184.65 122.6 -1186.88 120.43 C-1189.87 117.48 -1192.75 114.49 -1195.5 111.3 C-1199.2 107.04 -1203.05 102.93 -1206.94 98.83 C-1212.26 93.2 -1217.56 87.54 -1222.81 81.83 C-1226.62 77.69 -1230.46 73.57 -1234.31 69.45 C-1236.07 67.57 -1237.83 65.69 -1239.59 63.8 C-1240.66 62.65 -1241.72 61.51 -1242.79 60.36 C-1247.63 55.18 -1252.35 49.96 -1256.75 44.39 C-1259.86 40.51 -1263.13 37.23 -1266.87 33.95 C-1273.39 28.23 -1280.64 20.56 -1281.62 11.58 C-1281.18 7.39 -1280.24 5.92 -1277.25 3.02 C-1273.4 0.32 -1269.12 0.74 -1264.61 0.76 C-1263.73 0.76 -1262.84 0.76 -1261.93 0.75 C-1258.93 0.74 -1255.93 0.75 -1252.93 0.76 C-1250.76 0.75 -1248.59 0.75 -1246.42 0.74 C-1240.41 0.73 -1234.41 0.73 -1228.4 0.74 C-1222.56 0.74 -1216.71 0.73 -1210.86 0.72 C-1198.75 0.71 -1186.65 0.7 -1174.54 0.7 C-1162.26 0.7 -1149.98 0.7 -1137.71 0.68 C-1136.55 0.68 -1136.55 0.68 -1135.36 0.68 C-1131.41 0.68 -1127.46 0.68 -1123.51 0.67 C-1094.9 0.65 -1066.3 0.63 -1037.69 0.62 C-1009.34 0.61 -981 0.6 -952.66 0.58 C-951.34 0.57 -951.34 0.57 -949.99 0.57 C-941.96 0.57 -933.92 0.56 -925.88 0.56 C-905.91 0.54 -885.93 0.53 -865.95 0.51 C-865.04 0.51 -864.13 0.51 -863.19 0.51 C-818.91 0.48 -774.64 0.46 -730.36 0.44 C-714.99 0.43 -699.62 0.42 -684.25 0.42 C-683.3 0.42 -682.35 0.42 -681.37 0.41 C-637.09 0.39 -592.81 0.37 -548.54 0.34 C-545.66 0.33 -542.79 0.33 -539.92 0.33 C-520.87 0.32 -501.83 0.31 -482.79 0.29 C-443.98 0.27 -405.16 0.24 -366.35 0.22 C-365.01 0.22 -365.01 0.22 -363.64 0.22 C-283.12 0.17 -202.59 0.12 -122.07 0.08 C-119.77 0.08 -117.46 0.08 -115.16 0.07 C-93.92 0.06 -72.68 0.05 -51.44 0.04 C-50.17 0.04 -48.91 0.04 -47.61 0.04 C-40.5 0.04 -33.39 0.03 -26.28 0.03 C-24.18 0.03 -22.07 0.03 -19.96 0.03 C-17.1 0.02 -14.24 0.02 -11.39 0.02 C-10.57 0.02 -9.75 0.02 -8.91 0.02 C-7.41 0.02 -5.9 0.02 -4.39 0.02 C-2.93 0.02 -1.46 0.01 0 0 Z " fill="#FEFEFE" transform="translate(1281.249501844868,-0.017141330055892467)"/>
</svg>
