<?xml version="1.0" encoding="UTF-8" standalone="no"?>
<svg xmlns="http://www.w3.org/2000/svg"
     xmlns:svg="http://www.w3.org/2000/svg"
     version="1.1"
     width="4.33in" height="3.35333in"
     viewBox="0 0 1299 1006">
  <path id="Seleção"
        fill="none" stroke="black" stroke-width="1"
        d="M 9.00,0.53
           C 9.00,0.53 55.00,0.00 55.00,0.00
             55.00,0.00 145.00,0.00 145.00,0.00
             145.00,0.00 424.00,0.00 424.00,0.00
             424.00,0.00 1282.00,0.00 1282.00,0.00
             1286.01,0.01 1291.37,-0.02 1294.89,2.14
             1300.05,5.29 1300.16,15.30 1297.26,20.00
             1297.26,20.00 1282.09,37.00 1282.09,37.00
             1282.09,37.00 1258.72,63.00 1258.72,63.00
             1258.72,63.00 1248.09,74.00 1248.09,74.00
             1248.09,74.00 1221.09,103.00 1221.09,103.00
             1221.09,103.00 1201.91,124.00 1201.91,124.00
             1201.91,124.00 1191.56,134.45 1191.56,134.45
             1191.56,134.45 1183.91,144.00 1183.91,144.00
             1183.91,144.00 1162.09,167.00 1162.09,167.00
             1152.05,177.78 1137.22,195.60 1126.00,204.10
             1111.26,215.27 1091.40,220.97 1073.00,221.00
             1073.00,221.00 666.00,221.00 666.00,221.00
             651.13,221.02 632.09,224.27 621.17,235.17
             608.86,247.47 605.54,267.56 602.58,284.00
             602.58,284.00 587.08,373.00 587.08,373.00
             587.08,373.00 584.90,386.00 584.90,386.00
             582.81,398.76 576.80,421.63 584.90,432.83
             587.96,437.10 593.07,439.25 598.00,440.52
             603.17,441.85 605.75,441.99 611.00,442.00
             611.00,442.00 844.00,442.00 844.00,442.00
             844.00,442.00 861.00,443.00 861.00,443.00
             883.36,443.03 908.07,449.02 922.08,468.00
             926.38,473.83 928.94,479.21 931.31,486.00
             933.43,492.08 934.92,498.54 935.00,505.00
             935.00,505.00 935.00,516.00 935.00,516.00
             934.71,540.02 914.05,558.54 899.17,575.00
             899.17,575.00 852.17,626.00 852.17,626.00
             852.17,626.00 683.09,810.00 683.09,810.00
             683.09,810.00 625.17,873.00 625.17,873.00
             625.17,873.00 595.99,905.00 595.99,905.00
             595.99,905.00 573.91,929.00 573.91,929.00
             573.91,929.00 553.17,951.00 553.17,951.00
             553.17,951.00 525.00,982.00 525.00,982.00
             520.21,986.86 507.62,1002.51 503.00,1004.83
             500.97,1005.84 499.21,1005.92 497.00,1005.98
             483.25,1006.39 477.34,998.27 478.09,985.00
             478.09,985.00 485.92,935.00 485.92,935.00
             485.92,935.00 503.58,835.00 503.58,835.00
             503.58,835.00 549.58,572.00 549.58,572.00
             549.58,572.00 563.25,492.00 563.25,492.00
             565.09,481.41 569.87,466.01 564.56,456.00
             558.97,445.47 544.64,444.02 534.00,444.00
             534.00,444.00 449.00,444.00 449.00,444.00
             432.97,444.00 412.27,445.16 397.00,441.34
             375.81,436.03 364.60,420.15 362.92,399.00
             362.67,395.95 362.09,394.14 362.32,391.00
             363.90,369.96 371.43,332.14 375.42,310.00
             376.91,301.75 381.33,278.23 380.82,271.00
             380.25,263.09 378.53,253.98 374.65,247.00
             366.13,231.67 347.07,223.03 330.00,222.96
             330.00,222.96 316.00,222.96 316.00,222.96
             316.00,222.96 306.00,222.00 306.00,222.00
             306.00,222.00 238.00,223.00 238.00,223.00
             238.00,223.00 226.00,222.09 226.00,222.09
             214.76,221.32 206.90,220.91 196.00,216.95
             172.66,208.46 162.39,194.18 145.96,177.00
             145.96,177.00 110.17,139.00 110.17,139.00
             110.17,139.00 98.91,126.00 98.91,126.00
             98.91,126.00 74.09,100.00 74.09,100.00
             74.09,100.00 34.17,57.00 34.17,57.00
             34.17,57.00 19.58,40.09 19.58,40.09
             19.58,40.09 8.17,29.00 8.17,29.00
             0.45,20.36 -6.37,5.46 9.00,0.53 Z" />
</svg>
